<svg width="31" height="31" viewBox="0 0 31 31" fill="none" xmlns="http://www.w3.org/2000/svg">
<path d="M3.00244 15.1736C3.00315 18.1502 4.06553 21.029 5.99864 23.2925C7.93176 25.556 10.6088 27.0558 13.5487 27.5223V18.7861H10.3774V15.1736H13.5524V12.4236C13.4823 11.7799 13.5548 11.1287 13.7647 10.5163C13.9746 9.90379 14.3168 9.34505 14.767 8.87972C15.2172 8.4144 15.7643 8.0539 16.3695 7.82384C16.9747 7.59378 17.6231 7.49979 18.2687 7.54856C19.2062 7.56356 20.1437 7.64731 21.0687 7.79856V10.8723H19.4887C19.2202 10.8371 18.9471 10.8628 18.6898 10.9473C18.4325 11.0318 18.1975 11.1731 18.0022 11.3606C17.8068 11.5482 17.6561 11.7773 17.5611 12.0309C17.4662 12.2846 17.4295 12.5563 17.4537 12.8261V15.1736H20.9174L20.3637 18.7873H17.4537V27.5223C19.8132 27.1494 22.0165 26.1082 23.8026 24.522C25.5888 22.9358 26.883 20.871 27.5321 18.5721C28.1812 16.2732 28.158 13.8364 27.4652 11.5502C26.7724 9.26409 25.439 7.22435 23.6229 5.67249C21.8068 4.12063 19.5841 3.12165 17.2179 2.79382C14.8517 2.46598 12.4411 2.82303 10.2715 3.82269C8.10192 4.82235 6.26421 6.42274 4.97595 8.43441C3.68768 10.4461 3.00282 12.7848 3.00244 15.1736V15.1736Z" fill="white"/>
</svg>
