<svg width="31" height="31" viewBox="0 0 31 31" fill="none" xmlns="http://www.w3.org/2000/svg">
<path d="M26.6837 10.5525C26.6711 9.60574 26.4939 8.66843 26.16 7.78246C25.8704 7.03515 25.4281 6.35646 24.8614 5.78975C24.2947 5.22304 23.616 4.78077 22.8687 4.49121C21.9941 4.16291 21.0702 3.98539 20.1362 3.96621C18.9337 3.91246 18.5525 3.89746 15.5 3.89746C12.4475 3.89746 12.0562 3.89746 10.8625 3.96621C9.92891 3.98553 9.0054 4.16305 8.13122 4.49121C7.38379 4.78057 6.70499 5.22277 6.13826 5.7895C5.57152 6.35624 5.12933 7.03503 4.83997 7.78246C4.511 8.65638 4.33387 9.5801 4.31622 10.5137C4.26247 11.7175 4.24622 12.0987 4.24622 15.1512C4.24622 18.2037 4.24622 18.5937 4.31622 19.7887C4.33497 20.7237 4.51122 21.6462 4.83997 22.5225C5.12981 23.2697 5.57234 23.9482 6.13926 24.5147C6.70619 25.0812 7.38505 25.5232 8.13247 25.8125C9.00426 26.154 9.92793 26.3442 10.8637 26.375C12.0675 26.4287 12.4487 26.445 15.5012 26.445C18.5537 26.445 18.945 26.445 20.1387 26.375C21.0727 26.3566 21.9967 26.1795 22.8712 25.8512C23.6183 25.5613 24.2969 25.1189 24.8635 24.5523C25.4302 23.9856 25.8726 23.3071 26.1625 22.56C26.4912 21.685 26.6675 20.7625 26.6862 19.8262C26.74 18.6237 26.7562 18.2425 26.7562 15.1887C26.7537 12.1362 26.7537 11.7487 26.6837 10.5525V10.5525ZM15.4925 20.9237C12.3 20.9237 9.71372 18.3375 9.71372 15.145C9.71372 11.9525 12.3 9.36621 15.4925 9.36621C17.0251 9.36621 18.4949 9.97504 19.5787 11.0588C20.6624 12.1425 21.2712 13.6123 21.2712 15.145C21.2712 16.6776 20.6624 18.1474 19.5787 19.2312C18.4949 20.3149 17.0251 20.9237 15.4925 20.9237V20.9237ZM21.5012 10.5C21.3242 10.5001 21.1489 10.4654 20.9854 10.3977C20.8218 10.3301 20.6732 10.2308 20.548 10.1057C20.4229 9.98049 20.3236 9.83188 20.256 9.66832C20.1883 9.50476 20.1536 9.32946 20.1537 9.15246C20.1537 8.97559 20.1886 8.80044 20.2562 8.63703C20.3239 8.47362 20.4231 8.32515 20.5482 8.20008C20.6733 8.07501 20.8218 7.9758 20.9852 7.90811C21.1486 7.84042 21.3237 7.80559 21.5006 7.80559C21.6775 7.80559 21.8526 7.84042 22.016 7.90811C22.1794 7.9758 22.3279 8.07501 22.453 8.20008C22.578 8.32515 22.6773 8.47362 22.7449 8.63703C22.8126 8.80044 22.8475 8.97559 22.8475 9.15246C22.8475 9.89746 22.245 10.5 21.5012 10.5Z" fill="white"/>
<path d="M15.4925 18.8986C17.5657 18.8986 19.2463 17.218 19.2463 15.1449C19.2463 13.0717 17.5657 11.3911 15.4925 11.3911C13.4194 11.3911 11.7388 13.0717 11.7388 15.1449C11.7388 17.218 13.4194 18.8986 15.4925 18.8986Z" fill="white"/>
</svg>
