<svg width="31" height="31" viewBox="0 0 31 31" fill="none" xmlns="http://www.w3.org/2000/svg">
<path d="M15.5 2.04614C8.25195 2.04614 2.375 7.9231 2.375 15.1711C2.375 22.4192 8.25195 28.2961 15.5 28.2961C22.748 28.2961 28.625 22.4192 28.625 15.1711C28.625 7.9231 22.748 2.04614 15.5 2.04614ZM21.8076 11.9397C21.8164 12.0774 21.8164 12.2209 21.8164 12.3616C21.8164 16.6624 18.541 21.6165 12.5557 21.6165C10.71 21.6165 8.99902 21.0803 7.55762 20.1575C7.82129 20.1868 8.07324 20.1985 8.34277 20.1985C9.86621 20.1985 11.2666 19.6829 12.3828 18.8098C10.9531 18.7805 9.75195 17.843 9.3418 16.554C9.84277 16.6272 10.2939 16.6272 10.8096 16.4954C10.0734 16.3458 9.41174 15.946 8.93696 15.3639C8.46218 14.7817 8.20357 14.0532 8.20508 13.302V13.261C8.63574 13.5042 9.14258 13.6536 9.67285 13.6741C9.22708 13.377 8.8615 12.9745 8.60853 12.5023C8.35556 12.0301 8.22302 11.5027 8.22266 10.967C8.22266 10.3606 8.38086 9.80688 8.66504 9.32642C9.48214 10.3323 10.5018 11.155 11.6576 11.741C12.8135 12.327 14.0797 12.6632 15.374 12.7278C14.9141 10.5159 16.5664 8.72583 18.5527 8.72583C19.4902 8.72583 20.334 9.11841 20.9287 9.75122C21.6641 9.61353 22.3672 9.33813 22.9941 8.96899C22.751 9.72192 22.2412 10.3577 21.5645 10.759C22.2207 10.6887 22.8535 10.5071 23.4395 10.2522C22.9971 10.9026 22.4434 11.4797 21.8076 11.9397V11.9397Z" fill="white"/>
</svg>
